<?xml version="1.0" encoding="UTF-8" standalone="no"?>
<svg
   xmlns:dc="http://purl.org/dc/elements/1.1/"
   xmlns:cc="http://creativecommons.org/ns#"
   xmlns:rdf="http://www.w3.org/1999/02/22-rdf-syntax-ns#"
   xmlns:svg="http://www.w3.org/2000/svg"
   xmlns="http://www.w3.org/2000/svg"
   xmlns:sodipodi="http://sodipodi.sourceforge.net/DTD/sodipodi-0.dtd"
   xmlns:inkscape="http://www.inkscape.org/namespaces/inkscape"
   width="303.03403mm"
   height="33.343121mm"
   viewBox="0 0 303.03403 33.343121"
   version="1.1"
   id="svg469"
   inkscape:version="1.0 (4035a4f, 2020-05-01)"
   sodipodi:docname="streamlab-logo.svg">
  <title
     id="title545">Replay logo</title>
  <defs
     id="defs463" />
  <sodipodi:namedview
     id="base"
     pagecolor="#000000"
     bordercolor="#666666"
     borderopacity="1.0"
     inkscape:pageopacity="1"
     inkscape:pageshadow="2"
     inkscape:zoom="3.6296855"
     inkscape:cx="399.96634"
     inkscape:cy="-14.582248"
     inkscape:document-units="mm"
     inkscape:current-layer="layer1"
     inkscape:document-rotation="0"
     showgrid="false"
     inkscape:window-width="1585"
     inkscape:window-height="998"
     inkscape:window-x="2050"
     inkscape:window-y="107"
     inkscape:window-maximized="0"
     inkscape:pagecheckerboard="true"
     showguides="true"
     inkscape:guide-bbox="true" />
  <metadata
     id="metadata466">
    <rdf:RDF>
      <cc:Work
         rdf:about="">
        <dc:format>image/svg+xml</dc:format>
        <dc:type
           rdf:resource="http://purl.org/dc/dcmitype/StillImage" />
        <dc:title>Streamlab logo</dc:title>
        <dc:creator>
          <cc:Agent>
            <dc:title>Tor Erik Alræk</dc:title>
          </cc:Agent>
        </dc:creator>
        <cc:license
           rdf:resource="https://github.com/vimond/streamlab-v3/blob/master/LICENSE" />
        <dc:publisher>
          <cc:Agent>
            <dc:title />
          </cc:Agent>
        </dc:publisher>
      </cc:Work>
    </rdf:RDF>
  </metadata>
  <g
     inkscape:label="Layer 1"
     style="fill:black"
     inkscape:groupmode="layer"
     id="layer1">
    <path
       id="path215-9-0-7"
       d="m 280.86707,5.7251958 10.68477,11.2369102 v 0.54915 l -10.68477,11.24275 h -6.09763 L 285.62953,17.253596 274.76944,5.7251958 Z"
       sodipodi:nodetypes="cccccccc"
       style="opacity: 0.5" />
    <path
       d="m 35.410156,252.71484 -3.310547,4.52735 3.310547,4.52734 z"
       id="path252-4-0-0"
       sodipodi:type="inkscape:offset"
       inkscape:radius="0"
       inkscape:original="M 35.410156 252.71484 L 32.099609 257.24219 L 35.410156 261.76953 L 35.410156 252.71484 z "
       transform="matrix(-1.6587418,0,0,1.2586803,333.49572,-306.54497)" style="opacity: 0.7" />
    <g
       transform="translate(-0.2558848,-0.05982991)"
       aria-label="STREAMLAB"
       id="text1158">
      <path
         d="m 18.866517,24.599119 q 0,-2.139665 -1.515596,-3.298651 Q 15.857613,20.141483 11.934893,18.960209 8.0121724,17.778935 5.6942014,16.330203 1.258853,13.54418 1.258853,9.0642557 q 0,-3.9227201 3.1872102,-6.463573 3.2094983,-2.54085279 8.3134918,-2.54085279 3.387804,0 6.040098,1.24813819 2.652294,1.2481383 4.16789,3.5661093 1.515596,2.2956828 1.515596,5.1039938 h -5.616622 q 0,-2.5408528 -1.604749,-3.9672965 -1.582461,-1.4487319 -4.546789,-1.4487319 -2.7637347,0 -4.3016193,1.1812737 -1.5155964,1.1812737 -1.5155964,3.2986511 0,1.7830544 1.6493255,2.9866164 1.6493252,1.181274 5.4383162,2.317971 3.788991,1.114409 6.084674,2.563141 2.295683,1.426444 3.365516,3.298651 1.069833,1.849919 1.069833,4.346196 0,4.056449 -3.120346,6.463573 -3.098057,2.384835 -8.424933,2.384835 -3.5215329,0 -6.4858612,-1.292714 Q 3.5322477,30.795234 1.8829221,28.499551 0.2558848,26.203868 0.2558848,23.150387 H 5.894795 q 0,2.763735 1.827631,4.279331 1.827631,1.515597 5.237723,1.515597 2.94204,0 4.41306,-1.181274 1.493308,-1.203562 1.493308,-3.164922 z"
         id="path1215" />
      <path
         d="M 53.907472,5.0523828 H 43.788637 V 32.957188 H 38.194304 V 5.0523828 H 28.164621 V 0.50559357 h 25.742851 z"
         id="path1217" />
      <path
         d="M 71.117882,20.453517 H 64.832615 V 32.957188 H 59.193704 V 0.50559357 h 11.41155 q 5.616622,0 8.670103,2.51856463 3.053481,2.5185647 3.053481,7.2882358 0,3.254075 -1.582461,5.460605 -1.560173,2.184242 -4.368484,3.365515 l 7.288236,13.528927 v 0.289747 h -6.040097 z m -6.285267,-4.524501 h 5.794927 q 2.852888,0 4.457637,-1.426444 1.604749,-1.448732 1.604749,-3.945008 0,-2.6077174 -1.493308,-4.0341611 Q 73.7256,5.0969592 70.783559,5.0523828 h -5.950944 z"
         id="path1219" />
      <path
         d="M 107.69672,18.469869 H 94.368385 v 9.985106 h 15.579435 v 4.502213 H 88.729475 V 0.50559357 H 109.79181 V 5.0523828 H 94.368385 v 8.9598492 h 13.328335 z"
         id="path1221" />
      <path
         d="M 133.75553,25.401494 H 121.185 l -2.63001,7.555694 H 112.6932 L 124.9517,0.50559357 h 5.05942 L 142.29191,32.957188 h -5.88408 z m -10.98807,-4.54679 h 9.40561 l -4.7028,-13.462062 z"
         id="path1223" />
      <path
         d="m 154.30918,0.50559357 9.36104,24.87361243 9.33874,-24.87361243 h 7.28824 V 32.957188 h -5.61662 V 22.25886 l 0.5572,-14.3090134 -9.58392,25.0073414 H 161.6197 L 152.05807,7.9721348 152.61528,22.25886 v 10.698328 h -5.61662 V 0.50559357 Z"
         id="path1225" />
      <path
         d="m 193.58488,28.454975 h 14.73249 v 4.502213 h -20.3714 V 0.50559357 h 5.63891 z"
         id="path1227" />
      <path
         d="m 232.25882,25.401494 h -12.57054 l -2.63001,7.555694 h -5.86179 l 12.2585,-32.45159443 h 5.05942 L 240.79519,32.957188 h -5.88408 z m -10.98808,-4.54679 h 9.40561 l -4.7028,-13.462062 z"
         id="path1229" />
      <path
         d="M 245.50192,32.957188 V 0.50559357 h 11.1218 q 5.50518,0 8.38036,2.20653013 2.87518,2.2065301 2.87518,6.5750139 0,2.2288184 -1.20357,4.0118724 -1.20356,1.783055 -3.52153,2.763735 2.63001,0.713222 4.05645,2.69687 1.44873,1.96136 1.44873,4.725095 0,4.569077 -2.94204,7.020778 -2.91975,2.4517 -8.38035,2.4517 z m 5.63891,-14.643336 v 10.141123 h 6.26298 q 2.65229,0 4.1456,-1.315003 1.49331,-1.315003 1.49331,-3.655262 0,-5.059418 -5.17086,-5.170858 z m 0,-4.145602 h 5.52747 q 2.63001,0 4.10103,-1.181274 1.4933,-1.203562 1.4933,-3.3878039 0,-2.4071237 -1.38186,-3.4769565 -1.35958,-1.0698328 -4.25705,-1.0698328 h -5.48289 z"
         id="path1231" />
    </g>
    <path
       sodipodi:nodetypes="cccccccc"
       d="m 292.34926,5.7251959 10.68477,11.2369101 v 0.54915 l -10.68477,11.24275 h -6.09763 L 297.11172,17.253596 286.25163,5.7251959 Z"
       id="path215-9-0-7-1"
       style="opacity: 0.3" />
  </g>
</svg>
