<?xml version="1.0" encoding="UTF-8" standalone="no"?>
<svg
   xmlns:dc="http://purl.org/dc/elements/1.1/"
   xmlns:cc="http://creativecommons.org/ns#"
   xmlns:rdf="http://www.w3.org/1999/02/22-rdf-syntax-ns#"
   xmlns:svg="http://www.w3.org/2000/svg"
   xmlns="http://www.w3.org/2000/svg"
   xmlns:sodipodi="http://sodipodi.sourceforge.net/DTD/sodipodi-0.dtd"
   xmlns:inkscape="http://www.inkscape.org/namespaces/inkscape"
   inkscape:version="1.0 (4035a4f, 2020-05-01)"
   sodipodi:docname="vimond.svg"
   xml:space="preserve"
   enable-background="new 0 0 1920 1079.999"
   viewBox="0 0 720.26599 119.11501"
   height="119.11501"
   width="720.26599"
   y="0px"
   x="0px"
   id="Layer_1"
   version="1.1"><metadata
   id="metadata1066"><rdf:RDF><cc:Work
       rdf:about=""><dc:format>image/svg+xml</dc:format><dc:type
         rdf:resource="http://purl.org/dc/dcmitype/StillImage" /><dc:title></dc:title></cc:Work></rdf:RDF></metadata><defs
   id="defs1064" /><sodipodi:namedview
   inkscape:current-layer="Layer_1"
   inkscape:window-maximized="0"
   inkscape:window-y="377"
   inkscape:window-x="2195"
   inkscape:cy="59.557526"
   inkscape:cx="360.133"
   inkscape:zoom="0.56927083"
   fit-margin-bottom="0"
   fit-margin-right="0"
   fit-margin-left="0"
   fit-margin-top="0"
   inkscape:pagecheckerboard="true"
   showgrid="false"
   id="namedview1062"
   inkscape:window-height="480"
   inkscape:window-width="706"
   inkscape:pageshadow="2"
   inkscape:pageopacity="0"
   guidetolerance="10"
   gridtolerance="10"
   objecttolerance="10"
   borderopacity="1"
   bordercolor="#666666"
   pagecolor="#ffffff" />
<g
   transform="translate(-599.867,-480.44199)"
   id="g1059">
	<path
   id="path1047"
   d="m 684.186,489.088 -14.826,52.01 -5.445,20.174 h -1.859 l -5.449,-20.174 -14.834,-52.01 c -1.877,-6.436 -5.527,-8.646 -10.229,-8.646 h -31.677 l 34.06,107.929 c 2.707,8.309 5.419,11.186 13.55,11.186 h 31.006 c 8.135,0 10.843,-2.877 13.554,-11.186 L 726.092,480.442 H 694.42 c -4.703,0 -8.354,2.21 -10.234,8.646 z" />
	<rect
   id="rect1049"
   height="118.606"
   width="36.424999"
   y="480.44199"
   x="740.099" />
	<path
   id="path1051"
   d="m 883.103,487.396 -15.413,35.656 h -1.523 l -16.438,-35.656 c -2.15,-4.333 -4.286,-6.954 -9.536,-6.954 h -44.509 v 118.606 h 33.376 v -71.846 h 1.699 l 21.344,39.559 c 2.63,4.641 4.117,6.217 8.52,6.217 h 10.402 c 4.398,0 6.119,-1.807 8.529,-6.217 l 21.352,-39.559 h 1.691 v 71.846 h 34.388 V 480.442 h -44.341 c -5.246,0 -7.301,2.158 -9.541,6.954 z" />
	<path
   id="path1053"
   d="m 1027.811,480.442 h -39.478 c -12.374,0 -18.809,2.21 -23.381,6.784 -6.941,6.779 -12.884,19.818 -12.884,52.521 0,32.703 5.942,45.746 12.884,52.523 4.572,4.576 11.007,6.777 23.381,6.777 h 39.478 c 12.365,0 18.81,-2.201 23.39,-6.777 6.938,-6.777 12.867,-19.82 12.867,-52.523 0,-32.703 -5.93,-45.742 -12.867,-52.521 -4.581,-4.574 -11.025,-6.784 -23.39,-6.784 z m -4.412,89.634 c -1.007,1.021 -2.698,1.354 -7.789,1.354 h -15.076 c -5.078,0 -6.77,-0.332 -7.794,-1.354 -1.186,-1.186 -3.218,-4.234 -3.218,-30.328 0,-25.924 2.032,-29.145 3.218,-30.328 1.024,-1.016 2.716,-1.355 7.794,-1.355 h 15.076 c 5.091,0 6.782,0.34 7.789,1.355 1.189,1.184 3.222,4.404 3.222,30.328 0,25.922 -2.032,29.143 -3.222,30.328 z" />
	<path
   id="path1055"
   d="m 1157.132,541.098 h -0.844 l -30.837,-52.01 c -3.897,-6.436 -7.789,-8.646 -15.583,-8.646 h -31.015 v 118.606 h 34.401 v -67.771 h 0.848 l 36.594,59.131 c 4.065,6.439 7.793,8.641 15.595,8.641 h 25.236 V 480.442 h -34.396 v 60.656 z" />
	<path
   id="path1057"
   d="m 1308.106,490.445 c -7.11,-7.118 -17.451,-10.003 -36.252,-10.003 h -61.172 v 118.606 h 61.172 c 18.801,0 29.142,-2.711 36.252,-9.83 8.14,-8.127 12.027,-19.816 12.027,-49.471 10e-4,-29.651 -3.887,-41.171 -12.027,-49.302 z m -28.631,78.957 c -2.036,2.027 -5.081,2.873 -13.217,2.873 h -19.143 v -65.057 h 19.143 c 8.305,0 11.181,0.674 13.217,2.705 2.198,2.375 3.223,7.461 3.223,29.824 0,22.362 -1.19,27.618 -3.223,29.655 z" />
</g>
</svg>
